<mxfile host="app.diagrams.net" modified="2021-05-15T22:55:04.105Z" agent="5.0 (Windows NT 10.0; Win64; x64) AppleWebKit/537.36 (KHTML, like Gecko) Chrome/90.0.4430.212 Safari/537.36" etag="cHAzcwIlW2ZxqM1-Slby" version="14.6.13" type="github">
  <diagram name="Page-1" id="e56a1550-8fbb-45ad-956c-1786394a9013">
    <mxGraphModel dx="2522" dy="762" grid="1" gridSize="10" guides="1" tooltips="1" connect="1" arrows="1" fold="1" page="1" pageScale="1" pageWidth="1100" pageHeight="850" background="#ffffff" math="0" shadow="0">
      <root>
        <mxCell id="0" />
        <mxCell id="1" parent="0" />
        <mxCell id="2e49270ec7c68f3f-80" value="monitoring_station" style="swimlane;html=1;fontStyle=0;childLayout=stackLayout;horizontal=1;startSize=30;fillColor=#e0e0e0;horizontalStack=0;resizeParent=1;resizeLast=0;collapsible=1;marginBottom=0;swimlaneFillColor=#ffffff;align=center;rounded=0;shadow=0;comic=0;labelBackgroundColor=none;strokeWidth=1;fontFamily=Verdana;fontSize=14" parent="1" vertex="1">
          <mxGeometry x="440" y="320" width="160" height="135" as="geometry">
            <mxRectangle x="30" y="358" width="170" height="26" as="alternateBounds" />
          </mxGeometry>
        </mxCell>
        <mxCell id="2e49270ec7c68f3f-81" value="station_id" style="shape=partialRectangle;top=0;left=0;right=0;bottom=1;html=1;align=left;verticalAlign=middle;fillColor=none;spacingLeft=34;spacingRight=4;whiteSpace=wrap;overflow=hidden;rotatable=0;points=[[0,0.5],[1,0.5]];portConstraint=eastwest;dropTarget=0;fontStyle=5;" parent="2e49270ec7c68f3f-80" vertex="1">
          <mxGeometry y="30" width="160" height="30" as="geometry" />
        </mxCell>
        <mxCell id="2e49270ec7c68f3f-82" value="PK" style="shape=partialRectangle;top=0;left=0;bottom=0;html=1;fillColor=none;align=left;verticalAlign=middle;spacingLeft=4;spacingRight=4;whiteSpace=wrap;overflow=hidden;rotatable=0;points=[];portConstraint=eastwest;part=1;" parent="2e49270ec7c68f3f-81" vertex="1" connectable="0">
          <mxGeometry width="30" height="30" as="geometry" />
        </mxCell>
        <mxCell id="2e49270ec7c68f3f-83" value="coordinate" style="shape=partialRectangle;top=0;left=0;right=0;bottom=0;html=1;align=left;verticalAlign=top;fillColor=none;spacingLeft=34;spacingRight=4;whiteSpace=wrap;overflow=hidden;rotatable=0;points=[[0,0.5],[1,0.5]];portConstraint=eastwest;dropTarget=0;" parent="2e49270ec7c68f3f-80" vertex="1">
          <mxGeometry y="60" width="160" height="25" as="geometry" />
        </mxCell>
        <mxCell id="2e49270ec7c68f3f-84" value="" style="shape=partialRectangle;top=0;left=0;bottom=0;html=1;fillColor=none;align=left;verticalAlign=top;spacingLeft=4;spacingRight=4;whiteSpace=wrap;overflow=hidden;rotatable=0;points=[];portConstraint=eastwest;part=1;" parent="2e49270ec7c68f3f-83" vertex="1" connectable="0">
          <mxGeometry width="30" height="25" as="geometry" />
        </mxCell>
        <mxCell id="2e49270ec7c68f3f-87" value="service_staff" style="shape=partialRectangle;top=0;left=0;right=0;bottom=0;html=1;align=left;verticalAlign=top;fillColor=none;spacingLeft=34;spacingRight=4;whiteSpace=wrap;overflow=hidden;rotatable=0;points=[[0,0.5],[1,0.5]];portConstraint=eastwest;dropTarget=0;" parent="2e49270ec7c68f3f-80" vertex="1">
          <mxGeometry y="85" width="160" height="25" as="geometry" />
        </mxCell>
        <mxCell id="2e49270ec7c68f3f-88" value="" style="shape=partialRectangle;top=0;left=0;bottom=0;html=1;fillColor=none;align=left;verticalAlign=top;spacingLeft=4;spacingRight=4;whiteSpace=wrap;overflow=hidden;rotatable=0;points=[];portConstraint=eastwest;part=1;" parent="2e49270ec7c68f3f-87" vertex="1" connectable="0">
          <mxGeometry width="30" height="25" as="geometry" />
        </mxCell>
        <mxCell id="2e49270ec7c68f3f-85" value="start_date" style="shape=partialRectangle;top=0;left=0;right=0;bottom=0;html=1;align=left;verticalAlign=top;fillColor=none;spacingLeft=34;spacingRight=4;whiteSpace=wrap;overflow=hidden;rotatable=0;points=[[0,0.5],[1,0.5]];portConstraint=eastwest;dropTarget=0;" parent="2e49270ec7c68f3f-80" vertex="1">
          <mxGeometry y="110" width="160" height="25" as="geometry" />
        </mxCell>
        <mxCell id="2e49270ec7c68f3f-86" value="" style="shape=partialRectangle;top=0;left=0;bottom=0;html=1;fillColor=none;align=left;verticalAlign=top;spacingLeft=4;spacingRight=4;whiteSpace=wrap;overflow=hidden;rotatable=0;points=[];portConstraint=eastwest;part=1;" parent="2e49270ec7c68f3f-85" vertex="1" connectable="0">
          <mxGeometry width="30" height="25" as="geometry" />
        </mxCell>
        <mxCell id="SDH8PBnI_4fNQl6dAAK--8" value="&lt;span style=&quot;font-family: &amp;#34;helvetica&amp;#34; ; font-size: 12px ; text-align: left&quot;&gt;service_staff&lt;/span&gt;" style="swimlane;html=1;fontStyle=0;childLayout=stackLayout;horizontal=1;startSize=30;fillColor=#e0e0e0;horizontalStack=0;resizeParent=1;resizeLast=0;collapsible=1;marginBottom=0;swimlaneFillColor=#ffffff;align=center;rounded=0;shadow=0;comic=0;labelBackgroundColor=none;strokeWidth=1;fontFamily=Verdana;fontSize=14;swimlaneLine=1;" vertex="1" parent="1">
          <mxGeometry x="920" y="320" width="160" height="110" as="geometry" />
        </mxCell>
        <mxCell id="SDH8PBnI_4fNQl6dAAK--9" value="Id" style="shape=partialRectangle;top=0;left=0;right=0;bottom=1;html=1;align=left;verticalAlign=middle;fillColor=none;spacingLeft=34;spacingRight=4;whiteSpace=wrap;overflow=hidden;rotatable=0;points=[[0,0.5],[1,0.5]];portConstraint=eastwest;dropTarget=0;fontStyle=5;" vertex="1" parent="SDH8PBnI_4fNQl6dAAK--8">
          <mxGeometry y="30" width="160" height="30" as="geometry" />
        </mxCell>
        <mxCell id="SDH8PBnI_4fNQl6dAAK--10" value="PK" style="shape=partialRectangle;top=0;left=0;bottom=0;html=1;fillColor=none;align=left;verticalAlign=middle;spacingLeft=4;spacingRight=4;whiteSpace=wrap;overflow=hidden;rotatable=0;points=[];portConstraint=eastwest;part=1;" vertex="1" connectable="0" parent="SDH8PBnI_4fNQl6dAAK--9">
          <mxGeometry width="30" height="30" as="geometry" />
        </mxCell>
        <mxCell id="SDH8PBnI_4fNQl6dAAK--11" value="name" style="shape=partialRectangle;top=0;left=0;right=0;bottom=0;html=1;align=left;verticalAlign=top;fillColor=none;spacingLeft=34;spacingRight=4;whiteSpace=wrap;overflow=hidden;rotatable=0;points=[[0,0.5],[1,0.5]];portConstraint=eastwest;dropTarget=0;" vertex="1" parent="SDH8PBnI_4fNQl6dAAK--8">
          <mxGeometry y="60" width="160" height="25" as="geometry" />
        </mxCell>
        <mxCell id="SDH8PBnI_4fNQl6dAAK--12" value="" style="shape=partialRectangle;top=0;left=0;bottom=0;html=1;fillColor=none;align=left;verticalAlign=top;spacingLeft=4;spacingRight=4;whiteSpace=wrap;overflow=hidden;rotatable=0;points=[];portConstraint=eastwest;part=1;" vertex="1" connectable="0" parent="SDH8PBnI_4fNQl6dAAK--11">
          <mxGeometry width="30" height="25" as="geometry" />
        </mxCell>
        <mxCell id="SDH8PBnI_4fNQl6dAAK--35" value="ex" style="shape=partialRectangle;top=0;left=0;right=0;bottom=0;html=1;align=left;verticalAlign=top;fillColor=none;spacingLeft=34;spacingRight=4;whiteSpace=wrap;overflow=hidden;rotatable=0;points=[[0,0.5],[1,0.5]];portConstraint=eastwest;dropTarget=0;" vertex="1" parent="SDH8PBnI_4fNQl6dAAK--8">
          <mxGeometry y="85" width="160" height="25" as="geometry" />
        </mxCell>
        <mxCell id="SDH8PBnI_4fNQl6dAAK--36" value="" style="shape=partialRectangle;top=0;left=0;bottom=0;html=1;fillColor=none;align=left;verticalAlign=top;spacingLeft=4;spacingRight=4;whiteSpace=wrap;overflow=hidden;rotatable=0;points=[];portConstraint=eastwest;part=1;" vertex="1" connectable="0" parent="SDH8PBnI_4fNQl6dAAK--35">
          <mxGeometry width="30" height="25" as="geometry" />
        </mxCell>
        <mxCell id="SDH8PBnI_4fNQl6dAAK--19" value="&lt;span style=&quot;font-family: &amp;#34;helvetica&amp;#34; ; font-size: 12px ; text-align: left&quot;&gt;staff_on_duty&lt;/span&gt;" style="swimlane;html=1;fontStyle=0;childLayout=stackLayout;horizontal=1;startSize=30;fillColor=#e0e0e0;horizontalStack=0;resizeParent=1;resizeLast=0;collapsible=1;marginBottom=0;swimlaneFillColor=#ffffff;align=center;rounded=0;shadow=0;comic=0;labelBackgroundColor=none;strokeWidth=1;fontFamily=Verdana;fontSize=14;swimlaneLine=1;" vertex="1" parent="1">
          <mxGeometry x="680" y="320" width="160" height="135" as="geometry">
            <mxRectangle x="290" y="570" width="100" height="26" as="alternateBounds" />
          </mxGeometry>
        </mxCell>
        <mxCell id="SDH8PBnI_4fNQl6dAAK--20" value="duty_Id" style="shape=partialRectangle;top=0;left=0;right=0;bottom=1;html=1;align=left;verticalAlign=middle;fillColor=none;spacingLeft=34;spacingRight=4;whiteSpace=wrap;overflow=hidden;rotatable=0;points=[[0,0.5],[1,0.5]];portConstraint=eastwest;dropTarget=0;fontStyle=5;" vertex="1" parent="SDH8PBnI_4fNQl6dAAK--19">
          <mxGeometry y="30" width="160" height="30" as="geometry" />
        </mxCell>
        <mxCell id="SDH8PBnI_4fNQl6dAAK--21" value="PK" style="shape=partialRectangle;top=0;left=0;bottom=0;html=1;fillColor=none;align=left;verticalAlign=middle;spacingLeft=4;spacingRight=4;whiteSpace=wrap;overflow=hidden;rotatable=0;points=[];portConstraint=eastwest;part=1;" vertex="1" connectable="0" parent="SDH8PBnI_4fNQl6dAAK--20">
          <mxGeometry width="30" height="30" as="geometry" />
        </mxCell>
        <mxCell id="SDH8PBnI_4fNQl6dAAK--24" value="station" style="shape=partialRectangle;top=0;left=0;right=0;bottom=0;html=1;align=left;verticalAlign=top;fillColor=none;spacingLeft=34;spacingRight=4;whiteSpace=wrap;overflow=hidden;rotatable=0;points=[[0,0.5],[1,0.5]];portConstraint=eastwest;dropTarget=0;" vertex="1" parent="SDH8PBnI_4fNQl6dAAK--19">
          <mxGeometry y="60" width="160" height="25" as="geometry" />
        </mxCell>
        <mxCell id="SDH8PBnI_4fNQl6dAAK--25" value="" style="shape=partialRectangle;top=0;left=0;bottom=0;html=1;fillColor=none;align=left;verticalAlign=top;spacingLeft=4;spacingRight=4;whiteSpace=wrap;overflow=hidden;rotatable=0;points=[];portConstraint=eastwest;part=1;" vertex="1" connectable="0" parent="SDH8PBnI_4fNQl6dAAK--24">
          <mxGeometry width="30" height="25" as="geometry" />
        </mxCell>
        <mxCell id="SDH8PBnI_4fNQl6dAAK--22" value="staff" style="shape=partialRectangle;top=0;left=0;right=0;bottom=0;html=1;align=left;verticalAlign=top;fillColor=none;spacingLeft=34;spacingRight=4;whiteSpace=wrap;overflow=hidden;rotatable=0;points=[[0,0.5],[1,0.5]];portConstraint=eastwest;dropTarget=0;" vertex="1" parent="SDH8PBnI_4fNQl6dAAK--19">
          <mxGeometry y="85" width="160" height="25" as="geometry" />
        </mxCell>
        <mxCell id="SDH8PBnI_4fNQl6dAAK--23" value="" style="shape=partialRectangle;top=0;left=0;bottom=0;html=1;fillColor=none;align=left;verticalAlign=top;spacingLeft=4;spacingRight=4;whiteSpace=wrap;overflow=hidden;rotatable=0;points=[];portConstraint=eastwest;part=1;" vertex="1" connectable="0" parent="SDH8PBnI_4fNQl6dAAK--22">
          <mxGeometry width="30" height="25" as="geometry" />
        </mxCell>
        <mxCell id="SDH8PBnI_4fNQl6dAAK--26" value="date" style="shape=partialRectangle;top=0;left=0;right=0;bottom=0;html=1;align=left;verticalAlign=top;fillColor=none;spacingLeft=34;spacingRight=4;whiteSpace=wrap;overflow=hidden;rotatable=0;points=[[0,0.5],[1,0.5]];portConstraint=eastwest;dropTarget=0;" vertex="1" parent="SDH8PBnI_4fNQl6dAAK--19">
          <mxGeometry y="110" width="160" height="25" as="geometry" />
        </mxCell>
        <mxCell id="SDH8PBnI_4fNQl6dAAK--27" value="" style="shape=partialRectangle;top=0;left=0;bottom=0;html=1;fillColor=none;align=left;verticalAlign=top;spacingLeft=4;spacingRight=4;whiteSpace=wrap;overflow=hidden;rotatable=0;points=[];portConstraint=eastwest;part=1;" vertex="1" connectable="0" parent="SDH8PBnI_4fNQl6dAAK--26">
          <mxGeometry width="30" height="25" as="geometry" />
        </mxCell>
        <mxCell id="SDH8PBnI_4fNQl6dAAK--31" value="" style="edgeStyle=orthogonalEdgeStyle;html=1;endArrow=ERzeroToMany;endFill=1;labelBackgroundColor=none;fontFamily=Verdana;fontSize=14;exitX=1;exitY=0.5;startArrow=ERmandOne;startFill=0;entryX=0;entryY=0.5;entryDx=0;entryDy=0;" edge="1" parent="1" source="2e49270ec7c68f3f-87" target="SDH8PBnI_4fNQl6dAAK--22">
          <mxGeometry width="100" height="100" relative="1" as="geometry">
            <mxPoint x="630" y="479" as="sourcePoint" />
            <mxPoint x="700" y="453" as="targetPoint" />
            <Array as="points">
              <mxPoint x="640" y="418" />
              <mxPoint x="640" y="418" />
            </Array>
          </mxGeometry>
        </mxCell>
        <mxCell id="SDH8PBnI_4fNQl6dAAK--32" value="" style="edgeStyle=orthogonalEdgeStyle;html=1;endArrow=ERzeroToMany;endFill=1;labelBackgroundColor=none;fontFamily=Verdana;fontSize=14;exitX=1;exitY=0.5;startArrow=ERmandOne;startFill=0;entryX=0;entryY=0.5;entryDx=0;entryDy=0;exitDx=0;exitDy=0;" edge="1" parent="1" source="2e49270ec7c68f3f-81" target="SDH8PBnI_4fNQl6dAAK--24">
          <mxGeometry width="100" height="100" relative="1" as="geometry">
            <mxPoint x="510" y="538" as="sourcePoint" />
            <mxPoint x="610" y="723.9999999999998" as="targetPoint" />
            <Array as="points">
              <mxPoint x="640" y="365" />
              <mxPoint x="640" y="393" />
              <mxPoint x="680" y="393" />
            </Array>
          </mxGeometry>
        </mxCell>
        <mxCell id="SDH8PBnI_4fNQl6dAAK--38" style="edgeStyle=orthogonalEdgeStyle;rounded=1;orthogonalLoop=1;jettySize=auto;html=1;entryX=0;entryY=0.5;entryDx=0;entryDy=0;startArrow=ERzeroToMany;startFill=1;endArrow=ERmandOne;endFill=0;" edge="1" parent="1" source="SDH8PBnI_4fNQl6dAAK--22" target="SDH8PBnI_4fNQl6dAAK--9">
          <mxGeometry relative="1" as="geometry">
            <mxPoint x="1080" y="423" as="sourcePoint" />
          </mxGeometry>
        </mxCell>
        <mxCell id="SDH8PBnI_4fNQl6dAAK--39" value="monitoring_report" style="swimlane;html=1;fontStyle=0;childLayout=stackLayout;horizontal=1;startSize=30;fillColor=#e0e0e0;horizontalStack=0;resizeParent=1;resizeLast=0;collapsible=1;marginBottom=0;swimlaneFillColor=#ffffff;align=center;rounded=0;shadow=0;comic=0;labelBackgroundColor=none;strokeWidth=1;fontFamily=Verdana;fontSize=14" vertex="1" parent="1">
          <mxGeometry x="200" y="320" width="160" height="335" as="geometry">
            <mxRectangle x="30" y="358" width="170" height="26" as="alternateBounds" />
          </mxGeometry>
        </mxCell>
        <mxCell id="SDH8PBnI_4fNQl6dAAK--40" value="report_id" style="shape=partialRectangle;top=0;left=0;right=0;bottom=1;html=1;align=left;verticalAlign=middle;fillColor=none;spacingLeft=34;spacingRight=4;whiteSpace=wrap;overflow=hidden;rotatable=0;points=[[0,0.5],[1,0.5]];portConstraint=eastwest;dropTarget=0;fontStyle=5;" vertex="1" parent="SDH8PBnI_4fNQl6dAAK--39">
          <mxGeometry y="30" width="160" height="30" as="geometry" />
        </mxCell>
        <mxCell id="SDH8PBnI_4fNQl6dAAK--41" value="PK" style="shape=partialRectangle;top=0;left=0;bottom=0;html=1;fillColor=none;align=left;verticalAlign=middle;spacingLeft=4;spacingRight=4;whiteSpace=wrap;overflow=hidden;rotatable=0;points=[];portConstraint=eastwest;part=1;" vertex="1" connectable="0" parent="SDH8PBnI_4fNQl6dAAK--40">
          <mxGeometry width="30" height="30" as="geometry" />
        </mxCell>
        <mxCell id="SDH8PBnI_4fNQl6dAAK--42" value="station" style="shape=partialRectangle;top=0;left=0;right=0;bottom=0;html=1;align=left;verticalAlign=top;fillColor=none;spacingLeft=34;spacingRight=4;whiteSpace=wrap;overflow=hidden;rotatable=0;points=[[0,0.5],[1,0.5]];portConstraint=eastwest;dropTarget=0;" vertex="1" parent="SDH8PBnI_4fNQl6dAAK--39">
          <mxGeometry y="60" width="160" height="25" as="geometry" />
        </mxCell>
        <mxCell id="SDH8PBnI_4fNQl6dAAK--43" value="" style="shape=partialRectangle;top=0;left=0;bottom=0;html=1;fillColor=none;align=left;verticalAlign=top;spacingLeft=4;spacingRight=4;whiteSpace=wrap;overflow=hidden;rotatable=0;points=[];portConstraint=eastwest;part=1;" vertex="1" connectable="0" parent="SDH8PBnI_4fNQl6dAAK--42">
          <mxGeometry width="30" height="25" as="geometry" />
        </mxCell>
        <mxCell id="SDH8PBnI_4fNQl6dAAK--44" value="date" style="shape=partialRectangle;top=0;left=0;right=0;bottom=0;html=1;align=left;verticalAlign=top;fillColor=none;spacingLeft=34;spacingRight=4;whiteSpace=wrap;overflow=hidden;rotatable=0;points=[[0,0.5],[1,0.5]];portConstraint=eastwest;dropTarget=0;" vertex="1" parent="SDH8PBnI_4fNQl6dAAK--39">
          <mxGeometry y="85" width="160" height="25" as="geometry" />
        </mxCell>
        <mxCell id="SDH8PBnI_4fNQl6dAAK--45" value="" style="shape=partialRectangle;top=0;left=0;bottom=0;html=1;fillColor=none;align=left;verticalAlign=top;spacingLeft=4;spacingRight=4;whiteSpace=wrap;overflow=hidden;rotatable=0;points=[];portConstraint=eastwest;part=1;" vertex="1" connectable="0" parent="SDH8PBnI_4fNQl6dAAK--44">
          <mxGeometry width="30" height="25" as="geometry" />
        </mxCell>
        <mxCell id="SDH8PBnI_4fNQl6dAAK--46" value="alert" style="shape=partialRectangle;top=0;left=0;right=0;bottom=0;html=1;align=left;verticalAlign=top;fillColor=none;spacingLeft=34;spacingRight=4;whiteSpace=wrap;overflow=hidden;rotatable=0;points=[[0,0.5],[1,0.5]];portConstraint=eastwest;dropTarget=0;" vertex="1" parent="SDH8PBnI_4fNQl6dAAK--39">
          <mxGeometry y="110" width="160" height="25" as="geometry" />
        </mxCell>
        <mxCell id="SDH8PBnI_4fNQl6dAAK--47" value="" style="shape=partialRectangle;top=0;left=0;bottom=0;html=1;fillColor=none;align=left;verticalAlign=top;spacingLeft=4;spacingRight=4;whiteSpace=wrap;overflow=hidden;rotatable=0;points=[];portConstraint=eastwest;part=1;" vertex="1" connectable="0" parent="SDH8PBnI_4fNQl6dAAK--46">
          <mxGeometry width="30" height="25" as="geometry" />
        </mxCell>
        <mxCell id="SDH8PBnI_4fNQl6dAAK--48" value="temp" style="shape=partialRectangle;top=0;left=0;right=0;bottom=0;html=1;align=left;verticalAlign=top;fillColor=none;spacingLeft=34;spacingRight=4;whiteSpace=wrap;overflow=hidden;rotatable=0;points=[[0,0.5],[1,0.5]];portConstraint=eastwest;dropTarget=0;" vertex="1" parent="SDH8PBnI_4fNQl6dAAK--39">
          <mxGeometry y="135" width="160" height="25" as="geometry" />
        </mxCell>
        <mxCell id="SDH8PBnI_4fNQl6dAAK--49" value="" style="shape=partialRectangle;top=0;left=0;bottom=0;html=1;fillColor=none;align=left;verticalAlign=top;spacingLeft=4;spacingRight=4;whiteSpace=wrap;overflow=hidden;rotatable=0;points=[];portConstraint=eastwest;part=1;" vertex="1" connectable="0" parent="SDH8PBnI_4fNQl6dAAK--48">
          <mxGeometry width="30" height="25" as="geometry" />
        </mxCell>
        <mxCell id="SDH8PBnI_4fNQl6dAAK--50" value="pressure" style="shape=partialRectangle;top=0;left=0;right=0;bottom=0;html=1;align=left;verticalAlign=top;fillColor=none;spacingLeft=34;spacingRight=4;whiteSpace=wrap;overflow=hidden;rotatable=0;points=[[0,0.5],[1,0.5]];portConstraint=eastwest;dropTarget=0;" vertex="1" parent="SDH8PBnI_4fNQl6dAAK--39">
          <mxGeometry y="160" width="160" height="25" as="geometry" />
        </mxCell>
        <mxCell id="SDH8PBnI_4fNQl6dAAK--51" value="" style="shape=partialRectangle;top=0;left=0;bottom=0;html=1;fillColor=none;align=left;verticalAlign=top;spacingLeft=4;spacingRight=4;whiteSpace=wrap;overflow=hidden;rotatable=0;points=[];portConstraint=eastwest;part=1;" vertex="1" connectable="0" parent="SDH8PBnI_4fNQl6dAAK--50">
          <mxGeometry width="30" height="25" as="geometry" />
        </mxCell>
        <mxCell id="SDH8PBnI_4fNQl6dAAK--52" value="humidity" style="shape=partialRectangle;top=0;left=0;right=0;bottom=0;html=1;align=left;verticalAlign=top;fillColor=none;spacingLeft=34;spacingRight=4;whiteSpace=wrap;overflow=hidden;rotatable=0;points=[[0,0.5],[1,0.5]];portConstraint=eastwest;dropTarget=0;" vertex="1" parent="SDH8PBnI_4fNQl6dAAK--39">
          <mxGeometry y="185" width="160" height="25" as="geometry" />
        </mxCell>
        <mxCell id="SDH8PBnI_4fNQl6dAAK--53" value="" style="shape=partialRectangle;top=0;left=0;bottom=0;html=1;fillColor=none;align=left;verticalAlign=top;spacingLeft=4;spacingRight=4;whiteSpace=wrap;overflow=hidden;rotatable=0;points=[];portConstraint=eastwest;part=1;" vertex="1" connectable="0" parent="SDH8PBnI_4fNQl6dAAK--52">
          <mxGeometry width="30" height="25" as="geometry" />
        </mxCell>
        <mxCell id="SDH8PBnI_4fNQl6dAAK--54" value="wind" style="shape=partialRectangle;top=0;left=0;right=0;bottom=0;html=1;align=left;verticalAlign=top;fillColor=none;spacingLeft=34;spacingRight=4;whiteSpace=wrap;overflow=hidden;rotatable=0;points=[[0,0.5],[1,0.5]];portConstraint=eastwest;dropTarget=0;" vertex="1" parent="SDH8PBnI_4fNQl6dAAK--39">
          <mxGeometry y="210" width="160" height="25" as="geometry" />
        </mxCell>
        <mxCell id="SDH8PBnI_4fNQl6dAAK--55" value="" style="shape=partialRectangle;top=0;left=0;bottom=0;html=1;fillColor=none;align=left;verticalAlign=top;spacingLeft=4;spacingRight=4;whiteSpace=wrap;overflow=hidden;rotatable=0;points=[];portConstraint=eastwest;part=1;" vertex="1" connectable="0" parent="SDH8PBnI_4fNQl6dAAK--54">
          <mxGeometry width="30" height="25" as="geometry" />
        </mxCell>
        <mxCell id="SDH8PBnI_4fNQl6dAAK--56" value="pm_2.5" style="shape=partialRectangle;top=0;left=0;right=0;bottom=0;html=1;align=left;verticalAlign=top;fillColor=none;spacingLeft=34;spacingRight=4;whiteSpace=wrap;overflow=hidden;rotatable=0;points=[[0,0.5],[1,0.5]];portConstraint=eastwest;dropTarget=0;" vertex="1" parent="SDH8PBnI_4fNQl6dAAK--39">
          <mxGeometry y="235" width="160" height="25" as="geometry" />
        </mxCell>
        <mxCell id="SDH8PBnI_4fNQl6dAAK--57" value="" style="shape=partialRectangle;top=0;left=0;bottom=0;html=1;fillColor=none;align=left;verticalAlign=top;spacingLeft=4;spacingRight=4;whiteSpace=wrap;overflow=hidden;rotatable=0;points=[];portConstraint=eastwest;part=1;" vertex="1" connectable="0" parent="SDH8PBnI_4fNQl6dAAK--56">
          <mxGeometry width="30" height="25" as="geometry" />
        </mxCell>
        <mxCell id="SDH8PBnI_4fNQl6dAAK--58" value="pm_10" style="shape=partialRectangle;top=0;left=0;right=0;bottom=0;html=1;align=left;verticalAlign=top;fillColor=none;spacingLeft=34;spacingRight=4;whiteSpace=wrap;overflow=hidden;rotatable=0;points=[[0,0.5],[1,0.5]];portConstraint=eastwest;dropTarget=0;" vertex="1" parent="SDH8PBnI_4fNQl6dAAK--39">
          <mxGeometry y="260" width="160" height="25" as="geometry" />
        </mxCell>
        <mxCell id="SDH8PBnI_4fNQl6dAAK--59" value="" style="shape=partialRectangle;top=0;left=0;bottom=0;html=1;fillColor=none;align=left;verticalAlign=top;spacingLeft=4;spacingRight=4;whiteSpace=wrap;overflow=hidden;rotatable=0;points=[];portConstraint=eastwest;part=1;" vertex="1" connectable="0" parent="SDH8PBnI_4fNQl6dAAK--58">
          <mxGeometry width="30" height="25" as="geometry" />
        </mxCell>
        <mxCell id="SDH8PBnI_4fNQl6dAAK--60" value="AQI" style="shape=partialRectangle;top=0;left=0;right=0;bottom=0;html=1;align=left;verticalAlign=top;fillColor=none;spacingLeft=34;spacingRight=4;whiteSpace=wrap;overflow=hidden;rotatable=0;points=[[0,0.5],[1,0.5]];portConstraint=eastwest;dropTarget=0;" vertex="1" parent="SDH8PBnI_4fNQl6dAAK--39">
          <mxGeometry y="285" width="160" height="25" as="geometry" />
        </mxCell>
        <mxCell id="SDH8PBnI_4fNQl6dAAK--61" value="" style="shape=partialRectangle;top=0;left=0;bottom=0;html=1;fillColor=none;align=left;verticalAlign=top;spacingLeft=4;spacingRight=4;whiteSpace=wrap;overflow=hidden;rotatable=0;points=[];portConstraint=eastwest;part=1;" vertex="1" connectable="0" parent="SDH8PBnI_4fNQl6dAAK--60">
          <mxGeometry width="30" height="25" as="geometry" />
        </mxCell>
        <mxCell id="SDH8PBnI_4fNQl6dAAK--62" value="CO2" style="shape=partialRectangle;top=0;left=0;right=0;bottom=0;html=1;align=left;verticalAlign=top;fillColor=none;spacingLeft=34;spacingRight=4;whiteSpace=wrap;overflow=hidden;rotatable=0;points=[[0,0.5],[1,0.5]];portConstraint=eastwest;dropTarget=0;" vertex="1" parent="SDH8PBnI_4fNQl6dAAK--39">
          <mxGeometry y="310" width="160" height="25" as="geometry" />
        </mxCell>
        <mxCell id="SDH8PBnI_4fNQl6dAAK--63" value="" style="shape=partialRectangle;top=0;left=0;bottom=0;html=1;fillColor=none;align=left;verticalAlign=top;spacingLeft=4;spacingRight=4;whiteSpace=wrap;overflow=hidden;rotatable=0;points=[];portConstraint=eastwest;part=1;" vertex="1" connectable="0" parent="SDH8PBnI_4fNQl6dAAK--62">
          <mxGeometry width="30" height="25" as="geometry" />
        </mxCell>
        <mxCell id="SDH8PBnI_4fNQl6dAAK--64" style="edgeStyle=orthogonalEdgeStyle;rounded=1;orthogonalLoop=1;jettySize=auto;html=1;startArrow=ERzeroToMany;startFill=1;endArrow=ERmandOne;endFill=0;strokeColor=#000000;" edge="1" parent="1" source="SDH8PBnI_4fNQl6dAAK--42" target="2e49270ec7c68f3f-81">
          <mxGeometry relative="1" as="geometry" />
        </mxCell>
        <mxCell id="SDH8PBnI_4fNQl6dAAK--74" value="area_report" style="swimlane;html=1;fontStyle=0;childLayout=stackLayout;horizontal=1;startSize=30;fillColor=#e0e0e0;horizontalStack=0;resizeParent=1;resizeLast=0;collapsible=1;marginBottom=0;swimlaneFillColor=#ffffff;align=center;rounded=0;shadow=0;comic=0;labelBackgroundColor=none;strokeWidth=1;fontFamily=Verdana;fontSize=14" vertex="1" parent="1">
          <mxGeometry x="-280" y="320" width="160" height="360" as="geometry">
            <mxRectangle x="-720" y="320" width="170" height="26" as="alternateBounds" />
          </mxGeometry>
        </mxCell>
        <mxCell id="SDH8PBnI_4fNQl6dAAK--75" value="report_id" style="shape=partialRectangle;top=0;left=0;right=0;bottom=1;html=1;align=left;verticalAlign=middle;fillColor=none;spacingLeft=34;spacingRight=4;whiteSpace=wrap;overflow=hidden;rotatable=0;points=[[0,0.5],[1,0.5]];portConstraint=eastwest;dropTarget=0;fontStyle=5;" vertex="1" parent="SDH8PBnI_4fNQl6dAAK--74">
          <mxGeometry y="30" width="160" height="30" as="geometry" />
        </mxCell>
        <mxCell id="SDH8PBnI_4fNQl6dAAK--76" value="PK" style="shape=partialRectangle;top=0;left=0;bottom=0;html=1;fillColor=none;align=left;verticalAlign=middle;spacingLeft=4;spacingRight=4;whiteSpace=wrap;overflow=hidden;rotatable=0;points=[];portConstraint=eastwest;part=1;" vertex="1" connectable="0" parent="SDH8PBnI_4fNQl6dAAK--75">
          <mxGeometry width="30" height="30" as="geometry" />
        </mxCell>
        <mxCell id="SDH8PBnI_4fNQl6dAAK--99" value="monitoring_reports" style="shape=partialRectangle;top=0;left=0;right=0;bottom=0;html=1;align=left;verticalAlign=top;fillColor=none;spacingLeft=34;spacingRight=4;whiteSpace=wrap;overflow=hidden;rotatable=0;points=[[0,0.5],[1,0.5]];portConstraint=eastwest;dropTarget=0;" vertex="1" parent="SDH8PBnI_4fNQl6dAAK--74">
          <mxGeometry y="60" width="160" height="25" as="geometry" />
        </mxCell>
        <mxCell id="SDH8PBnI_4fNQl6dAAK--100" value="" style="shape=partialRectangle;top=0;left=0;bottom=0;html=1;fillColor=none;align=left;verticalAlign=top;spacingLeft=4;spacingRight=4;whiteSpace=wrap;overflow=hidden;rotatable=0;points=[];portConstraint=eastwest;part=1;" vertex="1" connectable="0" parent="SDH8PBnI_4fNQl6dAAK--99">
          <mxGeometry width="30" height="25" as="geometry" />
        </mxCell>
        <mxCell id="SDH8PBnI_4fNQl6dAAK--77" value="stations" style="shape=partialRectangle;top=0;left=0;right=0;bottom=0;html=1;align=left;verticalAlign=top;fillColor=none;spacingLeft=34;spacingRight=4;whiteSpace=wrap;overflow=hidden;rotatable=0;points=[[0,0.5],[1,0.5]];portConstraint=eastwest;dropTarget=0;" vertex="1" parent="SDH8PBnI_4fNQl6dAAK--74">
          <mxGeometry y="85" width="160" height="25" as="geometry" />
        </mxCell>
        <mxCell id="SDH8PBnI_4fNQl6dAAK--78" value="" style="shape=partialRectangle;top=0;left=0;bottom=0;html=1;fillColor=none;align=left;verticalAlign=top;spacingLeft=4;spacingRight=4;whiteSpace=wrap;overflow=hidden;rotatable=0;points=[];portConstraint=eastwest;part=1;" vertex="1" connectable="0" parent="SDH8PBnI_4fNQl6dAAK--77">
          <mxGeometry width="30" height="25" as="geometry" />
        </mxCell>
        <mxCell id="SDH8PBnI_4fNQl6dAAK--79" value="date" style="shape=partialRectangle;top=0;left=0;right=0;bottom=0;html=1;align=left;verticalAlign=top;fillColor=none;spacingLeft=34;spacingRight=4;whiteSpace=wrap;overflow=hidden;rotatable=0;points=[[0,0.5],[1,0.5]];portConstraint=eastwest;dropTarget=0;" vertex="1" parent="SDH8PBnI_4fNQl6dAAK--74">
          <mxGeometry y="110" width="160" height="25" as="geometry" />
        </mxCell>
        <mxCell id="SDH8PBnI_4fNQl6dAAK--80" value="" style="shape=partialRectangle;top=0;left=0;bottom=0;html=1;fillColor=none;align=left;verticalAlign=top;spacingLeft=4;spacingRight=4;whiteSpace=wrap;overflow=hidden;rotatable=0;points=[];portConstraint=eastwest;part=1;" vertex="1" connectable="0" parent="SDH8PBnI_4fNQl6dAAK--79">
          <mxGeometry width="30" height="25" as="geometry" />
        </mxCell>
        <mxCell id="SDH8PBnI_4fNQl6dAAK--81" value="alert" style="shape=partialRectangle;top=0;left=0;right=0;bottom=0;html=1;align=left;verticalAlign=top;fillColor=none;spacingLeft=34;spacingRight=4;whiteSpace=wrap;overflow=hidden;rotatable=0;points=[[0,0.5],[1,0.5]];portConstraint=eastwest;dropTarget=0;" vertex="1" parent="SDH8PBnI_4fNQl6dAAK--74">
          <mxGeometry y="135" width="160" height="25" as="geometry" />
        </mxCell>
        <mxCell id="SDH8PBnI_4fNQl6dAAK--82" value="" style="shape=partialRectangle;top=0;left=0;bottom=0;html=1;fillColor=none;align=left;verticalAlign=top;spacingLeft=4;spacingRight=4;whiteSpace=wrap;overflow=hidden;rotatable=0;points=[];portConstraint=eastwest;part=1;" vertex="1" connectable="0" parent="SDH8PBnI_4fNQl6dAAK--81">
          <mxGeometry width="30" height="25" as="geometry" />
        </mxCell>
        <mxCell id="SDH8PBnI_4fNQl6dAAK--83" value="temp" style="shape=partialRectangle;top=0;left=0;right=0;bottom=0;html=1;align=left;verticalAlign=top;fillColor=none;spacingLeft=34;spacingRight=4;whiteSpace=wrap;overflow=hidden;rotatable=0;points=[[0,0.5],[1,0.5]];portConstraint=eastwest;dropTarget=0;" vertex="1" parent="SDH8PBnI_4fNQl6dAAK--74">
          <mxGeometry y="160" width="160" height="25" as="geometry" />
        </mxCell>
        <mxCell id="SDH8PBnI_4fNQl6dAAK--84" value="" style="shape=partialRectangle;top=0;left=0;bottom=0;html=1;fillColor=none;align=left;verticalAlign=top;spacingLeft=4;spacingRight=4;whiteSpace=wrap;overflow=hidden;rotatable=0;points=[];portConstraint=eastwest;part=1;" vertex="1" connectable="0" parent="SDH8PBnI_4fNQl6dAAK--83">
          <mxGeometry width="30" height="25" as="geometry" />
        </mxCell>
        <mxCell id="SDH8PBnI_4fNQl6dAAK--85" value="pressure" style="shape=partialRectangle;top=0;left=0;right=0;bottom=0;html=1;align=left;verticalAlign=top;fillColor=none;spacingLeft=34;spacingRight=4;whiteSpace=wrap;overflow=hidden;rotatable=0;points=[[0,0.5],[1,0.5]];portConstraint=eastwest;dropTarget=0;" vertex="1" parent="SDH8PBnI_4fNQl6dAAK--74">
          <mxGeometry y="185" width="160" height="25" as="geometry" />
        </mxCell>
        <mxCell id="SDH8PBnI_4fNQl6dAAK--86" value="" style="shape=partialRectangle;top=0;left=0;bottom=0;html=1;fillColor=none;align=left;verticalAlign=top;spacingLeft=4;spacingRight=4;whiteSpace=wrap;overflow=hidden;rotatable=0;points=[];portConstraint=eastwest;part=1;" vertex="1" connectable="0" parent="SDH8PBnI_4fNQl6dAAK--85">
          <mxGeometry width="30" height="25" as="geometry" />
        </mxCell>
        <mxCell id="SDH8PBnI_4fNQl6dAAK--87" value="humidity" style="shape=partialRectangle;top=0;left=0;right=0;bottom=0;html=1;align=left;verticalAlign=top;fillColor=none;spacingLeft=34;spacingRight=4;whiteSpace=wrap;overflow=hidden;rotatable=0;points=[[0,0.5],[1,0.5]];portConstraint=eastwest;dropTarget=0;" vertex="1" parent="SDH8PBnI_4fNQl6dAAK--74">
          <mxGeometry y="210" width="160" height="25" as="geometry" />
        </mxCell>
        <mxCell id="SDH8PBnI_4fNQl6dAAK--88" value="" style="shape=partialRectangle;top=0;left=0;bottom=0;html=1;fillColor=none;align=left;verticalAlign=top;spacingLeft=4;spacingRight=4;whiteSpace=wrap;overflow=hidden;rotatable=0;points=[];portConstraint=eastwest;part=1;" vertex="1" connectable="0" parent="SDH8PBnI_4fNQl6dAAK--87">
          <mxGeometry width="30" height="25" as="geometry" />
        </mxCell>
        <mxCell id="SDH8PBnI_4fNQl6dAAK--89" value="wind" style="shape=partialRectangle;top=0;left=0;right=0;bottom=0;html=1;align=left;verticalAlign=top;fillColor=none;spacingLeft=34;spacingRight=4;whiteSpace=wrap;overflow=hidden;rotatable=0;points=[[0,0.5],[1,0.5]];portConstraint=eastwest;dropTarget=0;" vertex="1" parent="SDH8PBnI_4fNQl6dAAK--74">
          <mxGeometry y="235" width="160" height="25" as="geometry" />
        </mxCell>
        <mxCell id="SDH8PBnI_4fNQl6dAAK--90" value="" style="shape=partialRectangle;top=0;left=0;bottom=0;html=1;fillColor=none;align=left;verticalAlign=top;spacingLeft=4;spacingRight=4;whiteSpace=wrap;overflow=hidden;rotatable=0;points=[];portConstraint=eastwest;part=1;" vertex="1" connectable="0" parent="SDH8PBnI_4fNQl6dAAK--89">
          <mxGeometry width="30" height="25" as="geometry" />
        </mxCell>
        <mxCell id="SDH8PBnI_4fNQl6dAAK--91" value="pm_2.5" style="shape=partialRectangle;top=0;left=0;right=0;bottom=0;html=1;align=left;verticalAlign=top;fillColor=none;spacingLeft=34;spacingRight=4;whiteSpace=wrap;overflow=hidden;rotatable=0;points=[[0,0.5],[1,0.5]];portConstraint=eastwest;dropTarget=0;" vertex="1" parent="SDH8PBnI_4fNQl6dAAK--74">
          <mxGeometry y="260" width="160" height="25" as="geometry" />
        </mxCell>
        <mxCell id="SDH8PBnI_4fNQl6dAAK--92" value="" style="shape=partialRectangle;top=0;left=0;bottom=0;html=1;fillColor=none;align=left;verticalAlign=top;spacingLeft=4;spacingRight=4;whiteSpace=wrap;overflow=hidden;rotatable=0;points=[];portConstraint=eastwest;part=1;" vertex="1" connectable="0" parent="SDH8PBnI_4fNQl6dAAK--91">
          <mxGeometry width="30" height="25" as="geometry" />
        </mxCell>
        <mxCell id="SDH8PBnI_4fNQl6dAAK--93" value="pm_10" style="shape=partialRectangle;top=0;left=0;right=0;bottom=0;html=1;align=left;verticalAlign=top;fillColor=none;spacingLeft=34;spacingRight=4;whiteSpace=wrap;overflow=hidden;rotatable=0;points=[[0,0.5],[1,0.5]];portConstraint=eastwest;dropTarget=0;" vertex="1" parent="SDH8PBnI_4fNQl6dAAK--74">
          <mxGeometry y="285" width="160" height="25" as="geometry" />
        </mxCell>
        <mxCell id="SDH8PBnI_4fNQl6dAAK--94" value="" style="shape=partialRectangle;top=0;left=0;bottom=0;html=1;fillColor=none;align=left;verticalAlign=top;spacingLeft=4;spacingRight=4;whiteSpace=wrap;overflow=hidden;rotatable=0;points=[];portConstraint=eastwest;part=1;" vertex="1" connectable="0" parent="SDH8PBnI_4fNQl6dAAK--93">
          <mxGeometry width="30" height="25" as="geometry" />
        </mxCell>
        <mxCell id="SDH8PBnI_4fNQl6dAAK--95" value="AQI" style="shape=partialRectangle;top=0;left=0;right=0;bottom=0;html=1;align=left;verticalAlign=top;fillColor=none;spacingLeft=34;spacingRight=4;whiteSpace=wrap;overflow=hidden;rotatable=0;points=[[0,0.5],[1,0.5]];portConstraint=eastwest;dropTarget=0;" vertex="1" parent="SDH8PBnI_4fNQl6dAAK--74">
          <mxGeometry y="310" width="160" height="25" as="geometry" />
        </mxCell>
        <mxCell id="SDH8PBnI_4fNQl6dAAK--96" value="" style="shape=partialRectangle;top=0;left=0;bottom=0;html=1;fillColor=none;align=left;verticalAlign=top;spacingLeft=4;spacingRight=4;whiteSpace=wrap;overflow=hidden;rotatable=0;points=[];portConstraint=eastwest;part=1;" vertex="1" connectable="0" parent="SDH8PBnI_4fNQl6dAAK--95">
          <mxGeometry width="30" height="25" as="geometry" />
        </mxCell>
        <mxCell id="SDH8PBnI_4fNQl6dAAK--97" value="CO2" style="shape=partialRectangle;top=0;left=0;right=0;bottom=0;html=1;align=left;verticalAlign=top;fillColor=none;spacingLeft=34;spacingRight=4;whiteSpace=wrap;overflow=hidden;rotatable=0;points=[[0,0.5],[1,0.5]];portConstraint=eastwest;dropTarget=0;" vertex="1" parent="SDH8PBnI_4fNQl6dAAK--74">
          <mxGeometry y="335" width="160" height="25" as="geometry" />
        </mxCell>
        <mxCell id="SDH8PBnI_4fNQl6dAAK--98" value="" style="shape=partialRectangle;top=0;left=0;bottom=0;html=1;fillColor=none;align=left;verticalAlign=top;spacingLeft=4;spacingRight=4;whiteSpace=wrap;overflow=hidden;rotatable=0;points=[];portConstraint=eastwest;part=1;" vertex="1" connectable="0" parent="SDH8PBnI_4fNQl6dAAK--97">
          <mxGeometry width="30" height="25" as="geometry" />
        </mxCell>
        <mxCell id="SDH8PBnI_4fNQl6dAAK--101" style="edgeStyle=orthogonalEdgeStyle;rounded=1;orthogonalLoop=1;jettySize=auto;html=1;startArrow=ERzeroToMany;startFill=1;endArrow=ERmandOne;endFill=0;strokeColor=#000000;" edge="1" parent="1" source="SDH8PBnI_4fNQl6dAAK--108" target="SDH8PBnI_4fNQl6dAAK--40">
          <mxGeometry relative="1" as="geometry" />
        </mxCell>
        <mxCell id="SDH8PBnI_4fNQl6dAAK--105" value="report_to_area" style="swimlane;html=1;fontStyle=0;childLayout=stackLayout;horizontal=1;startSize=30;fillColor=#e0e0e0;horizontalStack=0;resizeParent=1;resizeLast=0;collapsible=1;marginBottom=0;swimlaneFillColor=#ffffff;align=center;rounded=0;shadow=0;comic=0;labelBackgroundColor=none;strokeWidth=1;fontFamily=Verdana;fontSize=14" vertex="1" parent="1">
          <mxGeometry x="-40" y="320" width="160" height="86" as="geometry">
            <mxRectangle x="-480" y="320" width="170" height="26" as="alternateBounds" />
          </mxGeometry>
        </mxCell>
        <mxCell id="SDH8PBnI_4fNQl6dAAK--106" value="report_id" style="shape=partialRectangle;top=0;left=0;right=0;bottom=1;html=1;align=left;verticalAlign=middle;fillColor=none;spacingLeft=34;spacingRight=4;whiteSpace=wrap;overflow=hidden;rotatable=0;points=[[0,0.5],[1,0.5]];portConstraint=eastwest;dropTarget=0;fontStyle=5;" vertex="1" parent="SDH8PBnI_4fNQl6dAAK--105">
          <mxGeometry y="30" width="160" height="30" as="geometry" />
        </mxCell>
        <mxCell id="SDH8PBnI_4fNQl6dAAK--107" value="PK" style="shape=partialRectangle;top=0;left=0;bottom=0;html=1;fillColor=none;align=left;verticalAlign=middle;spacingLeft=4;spacingRight=4;whiteSpace=wrap;overflow=hidden;rotatable=0;points=[];portConstraint=eastwest;part=1;" vertex="1" connectable="0" parent="SDH8PBnI_4fNQl6dAAK--106">
          <mxGeometry width="30" height="30" as="geometry" />
        </mxCell>
        <mxCell id="SDH8PBnI_4fNQl6dAAK--108" value="monitoring_reports" style="shape=partialRectangle;top=0;left=0;right=0;bottom=0;html=1;align=left;verticalAlign=top;fillColor=none;spacingLeft=34;spacingRight=4;whiteSpace=wrap;overflow=hidden;rotatable=0;points=[[0,0.5],[1,0.5]];portConstraint=eastwest;dropTarget=0;" vertex="1" parent="SDH8PBnI_4fNQl6dAAK--105">
          <mxGeometry y="60" width="160" height="25" as="geometry" />
        </mxCell>
        <mxCell id="SDH8PBnI_4fNQl6dAAK--109" value="" style="shape=partialRectangle;top=0;left=0;bottom=0;html=1;fillColor=none;align=left;verticalAlign=top;spacingLeft=4;spacingRight=4;whiteSpace=wrap;overflow=hidden;rotatable=0;points=[];portConstraint=eastwest;part=1;" vertex="1" connectable="0" parent="SDH8PBnI_4fNQl6dAAK--108">
          <mxGeometry width="30" height="25" as="geometry" />
        </mxCell>
        <mxCell id="SDH8PBnI_4fNQl6dAAK--140" style="edgeStyle=orthogonalEdgeStyle;rounded=1;orthogonalLoop=1;jettySize=auto;html=1;startArrow=ERzeroToMany;startFill=1;endArrow=ERmandOne;endFill=0;strokeColor=#000000;" edge="1" parent="1" source="SDH8PBnI_4fNQl6dAAK--108" target="SDH8PBnI_4fNQl6dAAK--99">
          <mxGeometry relative="1" as="geometry" />
        </mxCell>
      </root>
    </mxGraphModel>
  </diagram>
</mxfile>
